<mxfile host="app.diagrams.net" agent="Mozilla/5.0 (Windows NT 10.0; Win64; x64) AppleWebKit/537.36 (KHTML, like Gecko) Chrome/132.0.0.0 Safari/537.36" version="26.0.11">
  <diagram name="Pagina-1" id="y9TlppjyEf53RtiNAtn1">
    <mxGraphModel dx="1985" dy="2038" grid="1" gridSize="10" guides="1" tooltips="1" connect="1" arrows="1" fold="1" page="1" pageScale="1" pageWidth="827" pageHeight="1169" math="0" shadow="0">
      <root>
        <mxCell id="0" />
        <mxCell id="1" parent="0" />
        <mxCell id="vog2MQybY8CkKpnvj9uA-33" style="edgeStyle=orthogonalEdgeStyle;rounded=0;orthogonalLoop=1;jettySize=auto;html=1;entryX=0;entryY=0.5;entryDx=0;entryDy=0;" edge="1" parent="1" source="vog2MQybY8CkKpnvj9uA-1" target="vog2MQybY8CkKpnvj9uA-27">
          <mxGeometry relative="1" as="geometry">
            <Array as="points">
              <mxPoint x="590" y="330" />
              <mxPoint x="590" y="110" />
            </Array>
          </mxGeometry>
        </mxCell>
        <mxCell id="vog2MQybY8CkKpnvj9uA-34" value="GetTime()" style="edgeLabel;html=1;align=center;verticalAlign=middle;resizable=0;points=[];" vertex="1" connectable="0" parent="vog2MQybY8CkKpnvj9uA-33">
          <mxGeometry x="-0.72" y="1" relative="1" as="geometry">
            <mxPoint x="1" y="-14" as="offset" />
          </mxGeometry>
        </mxCell>
        <mxCell id="vog2MQybY8CkKpnvj9uA-46" style="edgeStyle=orthogonalEdgeStyle;rounded=0;orthogonalLoop=1;jettySize=auto;html=1;exitX=0.75;exitY=1;exitDx=0;exitDy=0;entryX=0.5;entryY=1;entryDx=0;entryDy=0;" edge="1" parent="1" source="vog2MQybY8CkKpnvj9uA-1" target="vog2MQybY8CkKpnvj9uA-43">
          <mxGeometry relative="1" as="geometry" />
        </mxCell>
        <mxCell id="vog2MQybY8CkKpnvj9uA-47" value="GetAlarm()" style="edgeLabel;html=1;align=center;verticalAlign=middle;resizable=0;points=[];" vertex="1" connectable="0" parent="vog2MQybY8CkKpnvj9uA-46">
          <mxGeometry x="-0.3175" y="-1" relative="1" as="geometry">
            <mxPoint as="offset" />
          </mxGeometry>
        </mxCell>
        <mxCell id="vog2MQybY8CkKpnvj9uA-49" style="edgeStyle=orthogonalEdgeStyle;rounded=0;orthogonalLoop=1;jettySize=auto;html=1;exitX=0.25;exitY=1;exitDx=0;exitDy=0;entryX=0.25;entryY=0;entryDx=0;entryDy=0;" edge="1" parent="1" source="vog2MQybY8CkKpnvj9uA-1" target="vog2MQybY8CkKpnvj9uA-6">
          <mxGeometry relative="1" as="geometry" />
        </mxCell>
        <mxCell id="vog2MQybY8CkKpnvj9uA-50" value="MakeSound()" style="edgeLabel;html=1;align=center;verticalAlign=middle;resizable=0;points=[];" vertex="1" connectable="0" parent="vog2MQybY8CkKpnvj9uA-49">
          <mxGeometry x="-0.032" y="-1" relative="1" as="geometry">
            <mxPoint as="offset" />
          </mxGeometry>
        </mxCell>
        <mxCell id="vog2MQybY8CkKpnvj9uA-1" value="&amp;lt;&amp;lt;control&amp;gt;&amp;gt;&lt;div&gt;OperationControl&lt;/div&gt;" style="rounded=0;whiteSpace=wrap;html=1;" vertex="1" parent="1">
          <mxGeometry x="610" y="310" width="120" height="60" as="geometry" />
        </mxCell>
        <mxCell id="vog2MQybY8CkKpnvj9uA-11" style="edgeStyle=orthogonalEdgeStyle;rounded=0;orthogonalLoop=1;jettySize=auto;html=1;entryX=0.5;entryY=1;entryDx=0;entryDy=0;" edge="1" parent="1" source="vog2MQybY8CkKpnvj9uA-2" target="vog2MQybY8CkKpnvj9uA-5">
          <mxGeometry relative="1" as="geometry" />
        </mxCell>
        <mxCell id="vog2MQybY8CkKpnvj9uA-12" value="ShowSettings()" style="edgeLabel;html=1;align=center;verticalAlign=middle;resizable=0;points=[];" vertex="1" connectable="0" parent="vog2MQybY8CkKpnvj9uA-11">
          <mxGeometry x="-0.2267" y="1" relative="1" as="geometry">
            <mxPoint x="1" as="offset" />
          </mxGeometry>
        </mxCell>
        <mxCell id="vog2MQybY8CkKpnvj9uA-2" value="&amp;lt;&amp;lt;control&amp;gt;&amp;gt;&lt;div&gt;InstelControl&lt;/div&gt;" style="rounded=0;whiteSpace=wrap;html=1;" vertex="1" parent="1">
          <mxGeometry x="414" y="150" width="120" height="60" as="geometry" />
        </mxCell>
        <mxCell id="vog2MQybY8CkKpnvj9uA-13" style="edgeStyle=orthogonalEdgeStyle;rounded=0;orthogonalLoop=1;jettySize=auto;html=1;entryX=0.5;entryY=0;entryDx=0;entryDy=0;exitX=0.5;exitY=0;exitDx=0;exitDy=0;" edge="1" parent="1" source="vog2MQybY8CkKpnvj9uA-3" target="vog2MQybY8CkKpnvj9uA-5">
          <mxGeometry relative="1" as="geometry">
            <Array as="points">
              <mxPoint x="850" y="-20" />
              <mxPoint x="474" y="-20" />
            </Array>
          </mxGeometry>
        </mxCell>
        <mxCell id="vog2MQybY8CkKpnvj9uA-14" value="ShowCurrentTime(Time)" style="edgeLabel;html=1;align=center;verticalAlign=middle;resizable=0;points=[];" vertex="1" connectable="0" parent="vog2MQybY8CkKpnvj9uA-13">
          <mxGeometry x="-0.3453" y="-1" relative="1" as="geometry">
            <mxPoint as="offset" />
          </mxGeometry>
        </mxCell>
        <mxCell id="vog2MQybY8CkKpnvj9uA-29" style="edgeStyle=orthogonalEdgeStyle;rounded=0;orthogonalLoop=1;jettySize=auto;html=1;exitX=0;exitY=0.25;exitDx=0;exitDy=0;entryX=0.5;entryY=0;entryDx=0;entryDy=0;" edge="1" parent="1" source="vog2MQybY8CkKpnvj9uA-3" target="vog2MQybY8CkKpnvj9uA-27">
          <mxGeometry relative="1" as="geometry" />
        </mxCell>
        <mxCell id="vog2MQybY8CkKpnvj9uA-30" value="GetTime()&lt;div&gt;SetTime(Time)&lt;/div&gt;" style="edgeLabel;html=1;align=center;verticalAlign=middle;resizable=0;points=[];" vertex="1" connectable="0" parent="vog2MQybY8CkKpnvj9uA-29">
          <mxGeometry x="0.1744" y="-1" relative="1" as="geometry">
            <mxPoint x="33" as="offset" />
          </mxGeometry>
        </mxCell>
        <mxCell id="vog2MQybY8CkKpnvj9uA-3" value="&amp;lt;&amp;lt;control&amp;gt;&amp;gt;&lt;div&gt;TijdInstelControl&lt;/div&gt;" style="rounded=0;whiteSpace=wrap;html=1;" vertex="1" parent="1">
          <mxGeometry x="790" y="30" width="120" height="60" as="geometry" />
        </mxCell>
        <mxCell id="vog2MQybY8CkKpnvj9uA-35" style="edgeStyle=orthogonalEdgeStyle;rounded=0;orthogonalLoop=1;jettySize=auto;html=1;entryX=0;entryY=0.5;entryDx=0;entryDy=0;" edge="1" parent="1" source="vog2MQybY8CkKpnvj9uA-4" target="vog2MQybY8CkKpnvj9uA-5">
          <mxGeometry relative="1" as="geometry" />
        </mxCell>
        <mxCell id="vog2MQybY8CkKpnvj9uA-40" value="ShowCurrentTime(Time)" style="edgeLabel;html=1;align=center;verticalAlign=middle;resizable=0;points=[];" vertex="1" connectable="0" parent="vog2MQybY8CkKpnvj9uA-35">
          <mxGeometry x="-0.3056" y="3" relative="1" as="geometry">
            <mxPoint as="offset" />
          </mxGeometry>
        </mxCell>
        <mxCell id="vog2MQybY8CkKpnvj9uA-41" style="edgeStyle=orthogonalEdgeStyle;rounded=0;orthogonalLoop=1;jettySize=auto;html=1;entryX=0.5;entryY=1;entryDx=0;entryDy=0;" edge="1" parent="1" source="vog2MQybY8CkKpnvj9uA-4" target="vog2MQybY8CkKpnvj9uA-27">
          <mxGeometry relative="1" as="geometry" />
        </mxCell>
        <mxCell id="vog2MQybY8CkKpnvj9uA-42" value="GetTime()" style="edgeLabel;html=1;align=center;verticalAlign=middle;resizable=0;points=[];" vertex="1" connectable="0" parent="vog2MQybY8CkKpnvj9uA-41">
          <mxGeometry x="-0.6933" y="4" relative="1" as="geometry">
            <mxPoint as="offset" />
          </mxGeometry>
        </mxCell>
        <mxCell id="vog2MQybY8CkKpnvj9uA-44" style="edgeStyle=orthogonalEdgeStyle;rounded=0;orthogonalLoop=1;jettySize=auto;html=1;exitX=1;exitY=0.75;exitDx=0;exitDy=0;entryX=0.5;entryY=0;entryDx=0;entryDy=0;" edge="1" parent="1" source="vog2MQybY8CkKpnvj9uA-4" target="vog2MQybY8CkKpnvj9uA-43">
          <mxGeometry relative="1" as="geometry" />
        </mxCell>
        <mxCell id="vog2MQybY8CkKpnvj9uA-45" value="GetAlarm()&lt;div&gt;SetAlarm(Time)&lt;/div&gt;" style="edgeLabel;html=1;align=center;verticalAlign=middle;resizable=0;points=[];" vertex="1" connectable="0" parent="vog2MQybY8CkKpnvj9uA-44">
          <mxGeometry x="0.6992" y="1" relative="1" as="geometry">
            <mxPoint as="offset" />
          </mxGeometry>
        </mxCell>
        <mxCell id="vog2MQybY8CkKpnvj9uA-4" value="&amp;lt;&amp;lt;control&amp;gt;&amp;gt;&lt;div&gt;AlarmInstelControl&lt;/div&gt;" style="rounded=0;whiteSpace=wrap;html=1;" vertex="1" parent="1">
          <mxGeometry x="610" y="230" width="120" height="60" as="geometry" />
        </mxCell>
        <mxCell id="vog2MQybY8CkKpnvj9uA-5" value="&amp;lt;&amp;lt;boundary&amp;gt;&amp;gt;&lt;div&gt;Display&lt;/div&gt;" style="rounded=0;whiteSpace=wrap;html=1;" vertex="1" parent="1">
          <mxGeometry x="414" y="30" width="120" height="60" as="geometry" />
        </mxCell>
        <mxCell id="vog2MQybY8CkKpnvj9uA-6" value="&amp;lt;&amp;lt;boundary&amp;gt;&amp;gt;&lt;div&gt;Buzzer&lt;/div&gt;" style="rounded=0;whiteSpace=wrap;html=1;" vertex="1" parent="1">
          <mxGeometry x="610" y="420" width="120" height="60" as="geometry" />
        </mxCell>
        <mxCell id="vog2MQybY8CkKpnvj9uA-8" style="edgeStyle=orthogonalEdgeStyle;rounded=0;orthogonalLoop=1;jettySize=auto;html=1;entryX=1;entryY=0.5;entryDx=0;entryDy=0;" edge="1" parent="1" source="vog2MQybY8CkKpnvj9uA-7" target="vog2MQybY8CkKpnvj9uA-2">
          <mxGeometry relative="1" as="geometry" />
        </mxCell>
        <mxCell id="vog2MQybY8CkKpnvj9uA-10" value="MessageReceived(Message)" style="edgeLabel;html=1;align=center;verticalAlign=middle;resizable=0;points=[];" vertex="1" connectable="0" parent="vog2MQybY8CkKpnvj9uA-8">
          <mxGeometry x="0.0567" y="-1" relative="1" as="geometry">
            <mxPoint x="15" y="11" as="offset" />
          </mxGeometry>
        </mxCell>
        <mxCell id="vog2MQybY8CkKpnvj9uA-17" style="edgeStyle=orthogonalEdgeStyle;rounded=0;orthogonalLoop=1;jettySize=auto;html=1;entryX=0.5;entryY=1;entryDx=0;entryDy=0;" edge="1" parent="1" source="vog2MQybY8CkKpnvj9uA-7" target="vog2MQybY8CkKpnvj9uA-3">
          <mxGeometry relative="1" as="geometry" />
        </mxCell>
        <mxCell id="vog2MQybY8CkKpnvj9uA-18" value="MessageReceived(Message)" style="edgeLabel;html=1;align=center;verticalAlign=middle;resizable=0;points=[];" vertex="1" connectable="0" parent="vog2MQybY8CkKpnvj9uA-17">
          <mxGeometry x="0.08" y="-1" relative="1" as="geometry">
            <mxPoint as="offset" />
          </mxGeometry>
        </mxCell>
        <mxCell id="vog2MQybY8CkKpnvj9uA-37" style="edgeStyle=orthogonalEdgeStyle;rounded=0;orthogonalLoop=1;jettySize=auto;html=1;entryX=1;entryY=0.5;entryDx=0;entryDy=0;" edge="1" parent="1" source="vog2MQybY8CkKpnvj9uA-7" target="vog2MQybY8CkKpnvj9uA-4">
          <mxGeometry relative="1" as="geometry">
            <Array as="points">
              <mxPoint x="850" y="260" />
            </Array>
          </mxGeometry>
        </mxCell>
        <mxCell id="vog2MQybY8CkKpnvj9uA-38" value="MessageReceived(Message)" style="edgeLabel;html=1;align=center;verticalAlign=middle;resizable=0;points=[];" vertex="1" connectable="0" parent="vog2MQybY8CkKpnvj9uA-37">
          <mxGeometry x="-0.1086" y="-2" relative="1" as="geometry">
            <mxPoint x="12" y="-18" as="offset" />
          </mxGeometry>
        </mxCell>
        <mxCell id="vog2MQybY8CkKpnvj9uA-7" value="&amp;lt;&amp;lt;control&amp;gt;&amp;gt;&lt;div&gt;NecReceiver&lt;/div&gt;" style="rounded=0;whiteSpace=wrap;html=1;" vertex="1" parent="1">
          <mxGeometry x="790" y="150" width="120" height="60" as="geometry" />
        </mxCell>
        <mxCell id="vog2MQybY8CkKpnvj9uA-27" value="&amp;lt;&amp;lt;entity&amp;gt;&amp;gt;&lt;div&gt;Time&lt;/div&gt;" style="rounded=0;whiteSpace=wrap;html=1;" vertex="1" parent="1">
          <mxGeometry x="610" y="80" width="120" height="60" as="geometry" />
        </mxCell>
        <mxCell id="vog2MQybY8CkKpnvj9uA-43" value="&amp;lt;&amp;lt;entity&amp;gt;&amp;gt;&lt;div&gt;Alarm&lt;/div&gt;" style="rounded=0;whiteSpace=wrap;html=1;" vertex="1" parent="1">
          <mxGeometry x="790" y="310" width="120" height="60" as="geometry" />
        </mxCell>
        <mxCell id="vog2MQybY8CkKpnvj9uA-53" style="edgeStyle=orthogonalEdgeStyle;rounded=0;orthogonalLoop=1;jettySize=auto;html=1;entryX=1;entryY=0.5;entryDx=0;entryDy=0;" edge="1" parent="1" source="vog2MQybY8CkKpnvj9uA-51" target="vog2MQybY8CkKpnvj9uA-7">
          <mxGeometry relative="1" as="geometry" />
        </mxCell>
        <mxCell id="vog2MQybY8CkKpnvj9uA-57" value="SignalDetected(t_signalUs)&lt;div&gt;PasueDetected(t_pauseUs)&lt;/div&gt;" style="edgeLabel;html=1;align=center;verticalAlign=middle;resizable=0;points=[];" vertex="1" connectable="0" parent="vog2MQybY8CkKpnvj9uA-53">
          <mxGeometry x="-0.0192" relative="1" as="geometry">
            <mxPoint as="offset" />
          </mxGeometry>
        </mxCell>
        <mxCell id="vog2MQybY8CkKpnvj9uA-54" style="edgeStyle=orthogonalEdgeStyle;rounded=0;orthogonalLoop=1;jettySize=auto;html=1;entryX=0;entryY=0.5;entryDx=0;entryDy=0;" edge="1" parent="1" source="vog2MQybY8CkKpnvj9uA-51" target="vog2MQybY8CkKpnvj9uA-52">
          <mxGeometry relative="1" as="geometry" />
        </mxCell>
        <mxCell id="vog2MQybY8CkKpnvj9uA-55" value="IsSignalPresent()" style="edgeLabel;html=1;align=center;verticalAlign=middle;resizable=0;points=[];" vertex="1" connectable="0" parent="vog2MQybY8CkKpnvj9uA-54">
          <mxGeometry x="0.3813" y="-1" relative="1" as="geometry">
            <mxPoint x="-23" y="9" as="offset" />
          </mxGeometry>
        </mxCell>
        <mxCell id="vog2MQybY8CkKpnvj9uA-51" value="&amp;lt;&amp;lt;control&amp;gt;&amp;gt;&lt;div&gt;PauseDetector&lt;/div&gt;" style="rounded=0;whiteSpace=wrap;html=1;" vertex="1" parent="1">
          <mxGeometry x="1070" y="150" width="120" height="60" as="geometry" />
        </mxCell>
        <mxCell id="vog2MQybY8CkKpnvj9uA-52" value="&amp;lt;&amp;lt;boundary&amp;gt;&amp;gt;&lt;div&gt;IR-Receiver&lt;/div&gt;" style="rounded=0;whiteSpace=wrap;html=1;" vertex="1" parent="1">
          <mxGeometry x="1300" y="150" width="120" height="60" as="geometry" />
        </mxCell>
      </root>
    </mxGraphModel>
  </diagram>
</mxfile>
